<svg width="150" height="57" viewBox="0 0 150 57" fill="none" xmlns="http://www.w3.org/2000/svg">
<path d="M28.5523 19.5315V26.7063H6.43432V19.5315H28.5523ZM8.84718 2.39161L8.83619 44.6434H0V2.39161H8.84718ZM34.9866 2.39161V44.6434H26.1394V2.39161H34.9866Z" fill="black"/>
<path d="M60.9711 36.4841V12.3566H69.4539V44.2448H61.126L60.9711 36.4841ZM61.9136 30.0029L64.4172 29.9445C64.4172 32.0465 64.1718 34.0026 63.6809 35.8126C63.19 37.6032 62.4536 39.1603 61.4718 40.4837C60.49 41.7878 59.253 42.8096 57.7606 43.5492C56.2683 44.2693 54.5109 44.6293 52.4884 44.6293C50.9371 44.6293 49.5037 44.4153 48.1881 43.9871C46.8921 43.5394 45.7729 42.8485 44.8303 41.9143C43.9075 40.9606 43.1809 39.7441 42.6508 38.265C42.1402 36.7663 41.8849 34.966 41.8849 32.864V12.3566H50.3677V32.9224C50.3677 33.8566 50.4757 34.6448 50.6917 35.2871C50.9273 35.9294 51.2513 36.4549 51.6637 36.8636C52.076 37.2723 52.5571 37.5643 53.1069 37.7395C53.6763 37.9146 54.3047 38.0022 54.992 38.0022C56.7396 38.0022 58.1141 37.6519 59.1155 36.9512C60.1366 36.2505 60.8533 35.2969 61.2657 34.0902C61.6976 32.864 61.9136 31.5016 61.9136 30.0029Z" fill="black"/>
<path d="M101.354 37.4767V44.2448H77.1428V37.4767H101.354ZM99.7319 19.9301L80.429 44.2448H74.7989V39.0629L90.0804 19.9301H99.7319Z" fill="black"/>
<path d="M115.818 0V44.2448H106.971V0H115.818Z" fill="black"/>
<path d="M132.224 40.5516L140.751 12.3566H150L136.967 48.872C136.692 49.67 136.319 50.5263 135.847 51.4411C135.396 52.3558 134.777 53.2219 133.992 54.0394C133.226 54.8763 132.254 55.5575 131.076 56.083C129.917 56.6085 128.557 57 126.868 57C125.863 57 125.67 57 124.857 56.2028C124.453 55.8063 123.861 53.6119 123.861 52.8147C123.861 52.0175 124.062 50.2238 124.062 50.2238C124.062 50.2238 124.239 50.2238 124.455 50.2238C125.469 50.2238 126.393 50.0592 127.1 49.8062C127.806 49.5532 128.376 49.1639 128.808 48.6384C129.24 48.1324 129.583 47.4706 129.839 46.6532L132.224 40.5516ZM128.686 12.3566L135.612 35.4133L136.819 44.3176L131.046 44.9307L119.437 12.3566H128.686Z" fill="black"/>
<path d="M10.4558 13.951V2.39161H24.5308V13.951H10.4558Z" fill="#4473C0"/>
<path d="M99.933 12.3566H75.2011V19.1329H99.7877L99.933 12.3566Z" fill="#4473C0"/>
<path d="M140.541 5.77972C140.541 8.97177 137.93 11.5594 134.71 11.5594C131.489 11.5594 128.879 8.97177 128.879 5.77972C128.879 2.58767 131.489 0 134.71 0C137.93 0 140.541 2.58767 140.541 5.77972Z" fill="#4473C0"/>
<path d="M124.254 50.2238H106.971L103.351 57H126.475C123.467 55.2063 124.062 52.0175 124.254 50.2238Z" fill="#4473C0"/>
</svg>
