<svg width="46" height="46" viewBox="0 0 46 46" fill="none" xmlns="http://www.w3.org/2000/svg">
<path d="M44.5161 28.1863H40.0645V25.9596C40.0645 24.7319 39.0659 23.7328 37.8387 23.7328H30.4194C29.7798 23.7328 29.2063 24.0082 28.7997 24.4417L20.7742 23.1042V21.2441C22.9881 19.9586 24.4839 17.5663 24.4839 14.826H25.2258C26.453 14.826 27.4516 13.8269 27.4516 12.5993C27.4516 11.3716 26.453 10.3725 25.2258 10.3725H24.8697L25.2763 9.42915C25.6519 8.55537 25.8149 7.60484 25.7517 6.65577C25.6885 5.70669 25.4009 4.78619 24.9127 3.96998C24.2897 2.92736 23.3633 2.09996 22.2573 1.59853L20.1866 0.655145C17.7419 -0.458214 14.7452 -0.132371 12.5959 1.47903L11.4258 2.35636L11.4273 2.35858C10.2545 2.66359 9.24735 3.41498 8.62056 4.45244C8.21885 5.1187 7.9925 5.87595 7.96266 6.65345C7.93282 7.43095 8.10046 8.20334 8.44992 8.89845L9.18666 10.3725H8.90324C7.67608 10.3725 6.67744 11.3716 6.67744 12.5993C6.67744 13.8269 7.67608 14.826 8.90324 14.826H9.64518C9.64518 17.5663 11.1409 19.9586 13.3549 21.2441V23.1042L4.3396 24.6072C3.12551 24.8063 2.02198 25.4315 1.22678 26.3706C0.431581 27.3098 -0.00331925 28.5016 1.90768e-05 29.7324V45.2578C1.90768e-05 45.4546 0.078187 45.6434 0.217327 45.7826C0.356467 45.9218 0.545181 46 0.741954 46H44.5161C45.3345 46 46 45.3342 46 44.5155V29.6707C46 28.8521 45.3345 28.1863 44.5161 28.1863ZM38.5807 25.9596V28.1863H33.8827C33.4872 26.9274 32.6282 25.8661 31.4796 25.2173H37.8387C38.2475 25.2173 38.5807 25.5498 38.5807 25.9596ZM29.6774 26.1043C30.2466 26.2216 30.7802 26.4712 31.2351 26.8328C31.6901 27.1945 32.0536 27.6581 32.2965 28.1863H29.6774V26.1043ZM25.9678 12.5993C25.9678 13.0082 25.6346 13.3415 25.2258 13.3415H24.4839V11.857H25.2258C25.6346 11.857 25.9678 12.1903 25.9678 12.5993ZM9.89298 5.2162C10.173 4.7526 10.5676 4.3689 11.0387 4.10202C11.5099 3.83514 12.0418 3.69407 12.5832 3.69239C13.7466 3.69239 14.8261 4.27059 15.4723 5.23847L15.7053 5.58806L16.9399 4.76492L16.7069 4.41533C16.0474 3.4267 15.0538 2.70892 13.9083 2.39347C15.5881 1.35136 17.7642 1.18213 19.5715 2.00528L21.6423 2.94866C22.4742 3.32621 23.1713 3.9487 23.6403 4.73301C24.0077 5.34712 24.224 6.0397 24.2716 6.7538C24.3192 7.46789 24.1967 8.18309 23.9141 8.84056L23.8644 8.95634L22.9221 7.07106C22.8735 6.97374 22.8042 6.88829 22.7189 6.82076C22.6337 6.75323 22.5346 6.70527 22.4288 6.68027C22.323 6.65528 22.213 6.65385 22.1065 6.67611C22.0001 6.69836 21.8999 6.74374 21.8129 6.80905L20.6258 7.69973C19.6049 8.46647 18.3399 8.88806 17.0645 8.88806C15.7891 8.88806 14.5241 8.46647 13.5032 7.70048L12.3161 6.80979C12.2292 6.74449 12.1289 6.6991 12.0225 6.67685C11.9161 6.6546 11.8061 6.65602 11.7002 6.68102C11.5944 6.70601 11.4954 6.75397 11.4101 6.8215C11.3249 6.88903 11.2555 6.97448 11.207 7.0718L10.2016 9.08401L9.77724 8.23489C9.53982 7.76298 9.4259 7.23854 9.44615 6.71062C9.46639 6.1827 9.62012 5.66853 9.89298 5.2162ZM8.90324 13.3415C8.49444 13.3415 8.16131 13.0082 8.16131 12.5993C8.16131 12.1903 8.49444 11.857 8.90324 11.857H9.64518V13.3415H8.90324ZM11.129 14.826V10.5477L12.1366 8.53104L12.6129 8.88806C13.889 9.84555 15.4701 10.3725 17.0645 10.3725C18.6589 10.3725 20.24 9.84555 21.5161 8.88806L21.9925 8.53104L23 10.5477V14.826C23 18.1 20.3372 20.7639 17.0645 20.7639C13.7919 20.7639 11.129 18.1 11.129 14.826ZM17.0645 22.2484C17.8196 22.2488 18.5702 22.1334 19.2903 21.9062V23.4255L17.0645 25.6523L14.8387 23.4255V21.9062C15.5588 22.1334 16.3095 22.2488 17.0645 22.2484ZM16.8249 30.413H17.3042L18.515 33.4413L17.0645 39.7303L15.614 33.4413L16.8249 30.413ZM18.4712 27.3349L17.4095 28.9285H16.7195L15.6571 27.3349L15.9049 26.5919L16.54 27.2273C16.6792 27.3663 16.8679 27.4444 17.0647 27.4442C17.2614 27.4441 17.45 27.3658 17.5891 27.2266L18.2242 26.5912L18.4712 27.3349ZM8.90324 44.5155V31.8975H7.41937V44.5155H1.48389V29.7324C1.48162 28.8532 1.7923 28.0019 2.36029 27.331C2.92828 26.6601 3.71647 26.2134 4.58369 26.0709L13.8423 24.5278L14.7319 25.4177L14.1346 27.2095C14.0987 27.3167 14.0879 27.4307 14.1029 27.5428C14.1179 27.6549 14.1585 27.762 14.2214 27.856L15.4887 29.7576L14.1495 33.1066C14.0935 33.2471 14.0816 33.4014 14.1153 33.5489L16.3411 43.198C16.3785 43.362 16.4704 43.5085 16.6018 43.6134C16.7333 43.7182 16.8964 43.7754 17.0645 43.7754C17.2326 43.7754 17.3958 43.7182 17.5272 43.6134C17.6586 43.5085 17.7506 43.362 17.7879 43.198L20.0137 33.5489C20.0471 33.402 20.036 33.2476 19.9796 33.1066L18.6404 29.7576L19.9076 27.856C20.0345 27.6652 20.0664 27.427 19.9944 27.2095L19.3972 25.4177L20.2868 24.5278L28.2047 25.8475C28.2032 25.8853 28.1936 25.921 28.1936 25.9596V28.1863H23.7419C22.9236 28.1863 22.2581 28.8521 22.2581 29.6707V44.5155H8.90324ZM24.4839 44.5155H23.7419V43.031H44.5169V44.5155H24.4839ZM44.5169 41.5466H23.7419V35.5263C24.2242 36.0223 24.801 36.4165 25.4381 36.6856C26.0753 36.9547 26.76 37.0933 27.4516 37.0931H31.9032V37.8354C31.9032 39.063 32.9019 40.0621 34.129 40.0621C35.3562 40.0621 36.3548 39.063 36.3548 37.8354V37.0931H40.8065C41.4982 37.0931 42.1829 36.9544 42.8202 36.6853C43.4574 36.4162 44.0344 36.0221 44.5169 35.5263V41.5466ZM33.3871 37.8354V34.1242H34.871V37.8354C34.8624 38.0265 34.7805 38.2069 34.6423 38.3391C34.5041 38.4714 34.3203 38.5452 34.129 38.5452C33.9378 38.5452 33.754 38.4714 33.6158 38.3391C33.4776 38.2069 33.3956 38.0265 33.3871 37.8354ZM44.5161 31.8975C44.5161 33.9438 42.852 35.6087 40.8065 35.6087H36.3548V33.3819C36.3548 33.1851 36.2767 32.9963 36.1375 32.8571C35.9984 32.7179 35.8097 32.6397 35.6129 32.6397H32.6452C32.4484 32.6397 32.2597 32.7179 32.1205 32.8571C31.9814 32.9963 31.9032 33.1851 31.9032 33.3819V35.6087H27.4516C25.4061 35.6087 23.7419 33.9438 23.7419 31.8975V29.6707H44.5161V31.8975Z" fill="white"/>
</svg>
